<svg version="1.1" xmlns="http://www.w3.org/2000/svg" xmlns:xlink="http://www.w3.org/1999/xlink" x="0px" y="0px"
	 viewBox="0 0 1000 515.66" style="enable-background:new 0 0 1000 515.66;" xml:space="preserve">
<g id="Calque_1">
</g>
<g id="Calque_2">
	<path d="M115.416,151.732L0,417.043h52.835l23.987-60.696h115.036l24.734,60.696h53.961l-114.29-265.312H115.416z M134.529,207.945
		l40.847,107.922H92.935L134.529,207.945z"/>
	<path d="M293.273,273.151h-34.101v-35.974h34.101v-26.607c0-10.742,1.185-21.046,3.557-30.911s6.367-18.556,11.999-26.05
		c5.62-7.494,13.043-13.422,22.291-17.797c9.237-4.375,20.856-6.557,34.848-6.557c4.992,0,9.189,0.19,12.556,0.557
		c3.368,0.379,6.806,1.067,10.304,2.063l-3,38.227c-2.49-0.747-5.182-1.375-8.051-1.873c-2.881-0.498-5.94-0.759-9.177-0.759
		c-6.498,0-11.75,1.257-15.746,3.759c-3.996,2.502-7.055,5.751-9.177,9.735c-2.122,4.008-3.569,8.371-4.316,13.126
		c-0.747,4.743-1.126,9.367-1.126,13.861v29.227h41.606v35.974h-41.606v143.896h-44.962V273.151z"/>
	<path d="M550.565,326.364c0-6.996-1.067-13.932-3.178-20.797c-2.135-6.865-5.312-13.055-9.557-18.556
		c-4.257-5.49-9.628-9.924-16.114-13.292c-6.498-3.379-14.122-5.063-22.872-5.063c-8.229,0-15.616,1.743-22.102,5.241
		c-6.498,3.51-12.059,8.004-16.671,13.493c-4.624,5.502-8.122,11.75-10.494,18.734c-2.383,6.996-3.557,13.991-3.557,20.987
		c0,6.996,1.174,13.932,3.557,20.797c2.372,6.877,5.87,13.055,10.494,18.544c4.612,5.502,10.173,9.936,16.671,13.315
		c6.486,3.367,13.873,5.051,22.102,5.051c8.75,0,16.374-1.743,22.872-5.241c6.486-3.498,11.857-8.003,16.114-13.493
		c4.245-5.502,7.422-11.738,9.557-18.734C549.497,340.355,550.565,333.359,550.565,326.364 M445.643,237.175v25.113h1.126
		c2.253-3.498,5.182-7.055,8.798-10.683c3.628-3.628,8.063-6.865,13.304-9.746c5.253-2.869,11.181-5.253,17.809-7.126
		c6.616-1.862,14.05-2.81,22.291-2.81c12.746,0,24.485,2.442,35.227,7.316c10.742,4.861,19.979,11.549,27.722,20.05
		c7.754,8.49,13.742,18.485,17.999,29.974c4.233,11.489,6.367,23.856,6.367,37.1c0,13.244-2.063,25.67-6.177,37.29
		c-4.126,11.608-10.007,21.722-17.619,30.342c-7.624,8.62-16.873,15.497-27.734,20.619c-10.861,5.11-23.168,7.683-36.911,7.683
		c-12.734,0-24.413-2.632-35.025-7.873c-10.624-5.253-18.805-12.367-24.556-21.366h-0.747V515.66h-44.974V237.175H445.643z"/>
	<path d="M731.762,334.985h-10.126c-7.245,0-14.857,0.308-22.848,0.937c-8.003,0.616-15.367,2.004-22.101,4.114
		c-6.759,2.134-12.379,5.122-16.873,8.999c-4.506,3.877-6.747,9.177-6.747,15.924c0,4.245,0.937,7.802,2.81,10.683
		c1.873,2.869,4.304,5.181,7.304,6.924c3,1.755,6.367,3,10.114,3.747c3.759,0.759,7.505,1.126,11.252,1.126
		c15.485,0,27.224-4.114,35.215-12.367c8.003-8.241,11.999-19.481,11.999-33.721V334.985z M732.509,394.187h-1.126
		c-4.494,8.004-11.739,14.56-21.734,19.671c-9.996,5.122-21.354,7.683-34.101,7.683c-7.245,0-14.797-0.937-22.67-2.81
		c-7.862-1.873-15.118-4.992-21.734-9.367c-6.616-4.363-12.118-10.114-16.481-17.24c-4.375-7.114-6.569-15.924-6.569-26.417
		c0-13.481,3.818-24.224,11.43-32.227c7.624-7.992,17.43-14.11,29.417-18.367c11.987-4.233,25.291-7.055,39.911-8.43
		c14.62-1.364,28.907-2.051,42.91-2.051v-4.494c0-11.24-4.067-19.552-12.177-24.923c-8.122-5.371-17.797-8.063-29.049-8.063
		c-9.486,0-18.604,2.004-27.354,6c-8.739,4.008-15.983,8.869-21.734,14.62l-23.228-27.354c10.244-9.497,22.042-16.612,35.405-21.366
		c13.375-4.743,26.915-7.114,40.657-7.114c15.995,0,29.168,2.241,39.543,6.747c10.363,4.494,18.544,10.363,24.544,17.608
		c5.999,7.245,10.173,15.367,12.544,24.354c2.372,8.999,3.569,17.987,3.569,26.987v109.416h-41.973V394.187z"/>
	<path style="fill:#84BD49;" d="M875.858,0c-68.545,0-124.131,55.574-124.131,124.143c0,68.557,55.586,124.131,124.131,124.131
		c68.569,0,124.142-55.574,124.142-124.131V0H875.858z"/>
</g>
</svg>

